<?xml version="1.0" encoding="utf-8"?>
<!-- Generator: Adobe Illustrator 19.0.1, SVG Export Plug-In . SVG Version: 6.00 Build 0)  -->
<svg version="1.1" id="Layer_1" xmlns="http://www.w3.org/2000/svg" xmlns:xlink="http://www.w3.org/1999/xlink" x="0px" y="0px"
	 viewBox="0 0 156.1 203.4" style="enable-background:new 0 0 156.1 203.4;" xml:space="preserve">
<style type="text/css">
	.st0{fill:none;stroke:#FFFFFF;stroke-width:6;stroke-linecap:round;stroke-linejoin:round;stroke-miterlimit:10;}
	.st1{fill:#FFFFFF;}
</style>
<g>
	<g>
		<path class="st0" d="M129.3,66.4c0,0,3.2-6.5,14.6-20.7c0,0,11.8-11-2.5-22.2c0,0-8.8-9.6-20.5-2.6c0,0-33.6,18.4-34.2,56.4
			c0,0-14.1-8.7-32.8,2.1c0,0-4.4-14.6,12.8-42.4c0,0,11.4-13.7-2.5-24.4c0,0-12.3-12.7-28.3,4.7c0,0-18.2,17.4-22.3,43.3
			c0,0-4.3,31.7,6.1,47.4c0,0-19.8,17.9-8.3,51.5S71.1,196,71.1,196s45.5,2.6,67.2-32.6c21.1-34.1-15.7-69.2-15.7-69.2
			c-2.1-13.8,7.5-29.1,7.5-29.1"/>
	</g>
	<circle class="st1" cx="105.6" cy="141.7" r="7"/>
	<circle class="st1" cx="49.1" cy="141.7" r="7"/>
</g>
</svg>
